<svg width="632" height="730" viewBox="0 0 632 730" fill="none" xmlns="http://www.w3.org/2000/svg">
<g clip-path="url(#clip0_253_1446)">
<path d="M283.515 390.544C290.694 408.005 287.502 429.609 272.311 441.785C259.607 451.958 242.57 450.958 230.866 439.642C216.636 425.915 214.816 403.463 224.097 386.554C224.362 386.066 224.217 385.797 223.661 385.745C182.421 381.973 139.386 374.263 100.799 362.165C73.353 353.556 14.0886 331.13 16.9986 295.49C19.5112 264.686 70.0199 244.248 94.8897 236.089C115.264 229.4 135.818 224.127 156.551 220.27C156.788 220.226 157.013 220.132 157.21 219.995C157.407 219.858 157.571 219.68 157.692 219.475C195.236 157.226 232.75 94.7674 270.234 32.0994C275.584 23.1444 279.789 17.1573 282.849 14.1381C305.475 -8.21097 341.267 -2.37353 357.266 24.2092C397.613 91.3162 436.734 156.396 474.628 219.449C474.884 219.868 475.256 220.125 475.743 220.219C509.984 226.698 545.302 236.397 575.876 252.254C589.683 259.426 604.81 270.164 611.989 283.969C619.616 298.658 613.95 313.631 603.015 324.587C588.042 339.585 566.364 349.835 546.02 357.187C502.946 372.762 454.784 381.358 408.377 385.771C408.069 385.797 407.988 385.951 408.133 386.233C414.911 398.908 415.847 411.918 410.941 425.26C402.942 447.006 377.815 456.795 359.278 441.156C344.831 428.955 341.639 407.607 348.908 390.415C349.13 389.894 348.955 389.641 348.382 389.658C327.426 390.565 306.005 390.573 284.118 389.684C283.468 389.658 283.268 389.945 283.515 390.544ZM223.174 293.732C196.305 289.537 169.563 282.237 146.719 269.305C145.129 268.398 144.898 268.663 146.027 270.1C168.679 298.864 208.893 313.246 244.096 320.34C286.331 328.842 328.956 329.809 371.97 323.24C390.703 320.375 408.574 315.914 425.581 309.859C448.694 301.622 471.564 288.831 486.46 269.458C487.127 268.586 486.978 268.411 486.012 268.932C452.245 287.407 413.595 294.592 375.059 298.03C322.175 302.734 271.546 301.301 223.174 293.732Z" fill="#F0F0F0"/>
<path d="M0 646.621C0 646.544 0 646.471 0 646.403C10.6487 634.566 21.1991 622.745 31.6513 610.942C39.907 601.619 50.5301 592.579 63.5205 583.821C95.5606 562.207 130.883 551.67 169.486 552.209C170.64 552.226 170.7 551.982 169.666 551.477C131.412 532.605 97.6331 504.188 76.5835 467.008C75.1819 464.519 73.8786 461.966 72.6736 459.349C72.5112 458.981 72.5155 458.617 72.6864 458.258C85.5657 431.094 89.9371 403.258 85.8007 374.751C85.7238 374.229 85.9417 374.019 86.4545 374.122C113.307 379.476 140.813 383.778 168.973 387.029C169.452 387.08 169.683 387.349 169.666 387.837C168.444 433.33 182.972 471.926 213.252 503.623C236.378 527.833 268.299 543.241 300.95 546.641C390.943 556.019 463.001 482.249 462.757 394.431C462.757 392.122 462.723 389.894 462.655 387.747C462.638 387.277 462.864 387.016 463.334 386.964C490.494 383.919 517.949 379.66 545.699 374.186C546.28 374.075 546.528 374.31 546.443 374.892C542.341 403.45 547.109 432.009 559.698 458.412C559.886 458.805 559.882 459.199 559.685 459.592C539.136 500.069 503.728 531.13 463.039 551.362C461.672 552.038 461.749 552.367 463.27 552.35C514.599 551.593 561.826 571.838 597.31 608.094C603.199 614.115 614.497 626.8 631.205 646.146C631.547 646.54 631.492 646.861 631.039 647.109C532.935 701.608 428.247 729.183 316.974 729.833C308.471 729.885 299.813 729.718 291.002 729.333C187.463 724.868 90.4627 697.298 0 646.621ZM316.641 618.114C316.585 618.055 316.517 618.008 316.442 617.976C316.367 617.944 316.287 617.927 316.205 617.927C316.124 617.927 316.043 617.944 315.968 617.976C315.893 618.008 315.826 618.055 315.769 618.114L279.708 655.615C279.597 655.727 279.535 655.88 279.535 656.038C279.535 656.196 279.597 656.349 279.708 656.461L315.769 693.795C315.826 693.854 315.893 693.901 315.968 693.933C316.043 693.965 316.124 693.982 316.205 693.982C316.287 693.982 316.367 693.965 316.442 693.933C316.517 693.901 316.585 693.854 316.641 693.795L352.612 656.449C352.724 656.336 352.786 656.184 352.786 656.025C352.786 655.867 352.724 655.715 352.612 655.602L316.641 618.114Z" fill="#F0F0F0"/>
</g>
<defs>
<clipPath id="clip0_253_1446">
<rect width="632" height="730" fill="white"/>
</clipPath>
</defs>
</svg>
