<svg width="169" height="32" viewBox="0 0 169 32" fill="none" xmlns="http://www.w3.org/2000/svg">
<g clip-path="url(#clip0_12_422)">
<path d="M75.5457 3.11116C77.5056 4.01676 79.4563 4.94295 81.4081 5.85084C81.4242 5.85841 81.4377 5.87038 81.4473 5.88536C81.4568 5.90034 81.4618 5.91771 81.4619 5.93545V29.1541C81.4619 29.1892 81.444 29.2067 81.4081 29.2067H74.5155C74.5108 29.2067 74.5062 29.2058 74.5019 29.204C74.4976 29.2022 74.4937 29.1996 74.4904 29.1963C74.4871 29.193 74.4845 29.1891 74.4827 29.1848C74.481 29.1805 74.48 29.1759 74.48 29.1712V3.06314C74.48 3.05448 74.4818 3.04591 74.4851 3.03793C74.4885 3.02994 74.4934 3.02271 74.4995 3.01664C74.5057 3.01057 74.513 3.0058 74.5211 3.00259C74.5291 2.99938 74.5377 2.99781 74.5464 2.99796C74.7232 3.00101 74.8966 2.99987 75.0666 2.99453C75.2084 2.98996 75.3681 3.02883 75.5457 3.11116Z" fill="#F0F0F0"/>
<path d="M135.701 16.606C135.797 16.6094 135.891 16.614 135.96 16.5339C137.791 14.4209 139.617 12.3154 141.439 10.2176C141.47 10.1818 141.509 10.1639 141.556 10.1639H149.421C149.478 10.1639 149.488 10.1856 149.452 10.229L142.713 18.1245C142.686 18.1557 142.684 18.1885 142.709 18.2228L150.377 29.1278C150.413 29.1804 150.4 29.2067 150.336 29.2067H142.33C142.29 29.2067 142.258 29.1903 142.236 29.1575L137.802 22.6994C137.782 22.6696 137.755 22.6448 137.724 22.6268C137.692 22.6089 137.657 22.5982 137.621 22.5957C137.585 22.5932 137.549 22.5988 137.515 22.6122C137.482 22.6256 137.452 22.6464 137.427 22.6731L135.684 24.5837C135.652 24.6182 135.634 24.6631 135.634 24.7095V29.1518C135.634 29.1663 135.629 29.1803 135.619 29.1906C135.609 29.2009 135.595 29.2067 135.581 29.2067H128.665C128.658 29.2067 128.651 29.2037 128.646 29.1983C128.641 29.1929 128.638 29.1857 128.638 29.1781V3.08141C128.638 3.04558 128.656 3.02538 128.691 3.02081C129.121 2.9644 129.448 2.98879 129.674 3.09399C131.573 3.98053 133.535 4.89757 135.56 5.8451C135.582 5.85538 135.601 5.87194 135.614 5.89281C135.627 5.91368 135.634 5.938 135.634 5.96287V16.5374C135.634 16.5808 135.657 16.6037 135.701 16.606Z" fill="#F0F0F0"/>
<path d="M15.537 20.2444L10.4282 29.9373C10.4196 29.9539 10.4065 29.9677 10.3904 29.9774C10.3742 29.9871 10.3557 29.9922 10.3367 29.9922L9.21726 29.9934C9.17152 29.9934 9.13913 29.9728 9.12007 29.9316L0.0251668 10.2222C0.0222811 10.2159 0.0210309 10.209 0.0215308 10.2021C0.0220307 10.1952 0.0242661 10.1885 0.0280282 10.1827C0.0317904 10.1769 0.0369581 10.1721 0.043054 10.1688C0.0491498 10.1655 0.0559772 10.1638 0.0629022 10.1639L7.55242 10.1627C7.60196 10.1627 7.63589 10.1856 7.65418 10.2313L11.0216 18.4721C11.0269 18.4851 11.0354 18.4967 11.0463 18.5059C11.0573 18.515 11.0704 18.5215 11.0845 18.5247C11.1668 18.543 11.2511 18.5434 11.3372 18.5258C11.3551 18.5223 11.3718 18.5145 11.3858 18.5032C11.3998 18.4918 11.4106 18.4772 11.4172 18.4607L15.0236 9.73395C15.0317 9.71466 15.0453 9.69819 15.0626 9.68659C15.0798 9.675 15.1001 9.6688 15.1208 9.66877L16.4415 9.66534C16.4663 9.66539 16.4904 9.67269 16.511 9.68632C16.5315 9.69995 16.5475 9.7193 16.557 9.74195L20.1577 18.4561C20.1699 18.4866 20.1912 18.5079 20.2217 18.5201C20.2903 18.5476 20.3589 18.5502 20.4275 18.5281C20.4404 18.5242 20.4523 18.5175 20.4621 18.5086C20.472 18.4997 20.4797 18.4888 20.4847 18.4767L23.9001 10.1982C23.9093 10.1753 23.9268 10.1639 23.9527 10.1639H31.4262C31.4788 10.1639 31.4941 10.1879 31.472 10.2359L22.4594 29.9236C22.4388 29.9701 22.403 29.9934 22.3519 29.9934H21.2165C21.1662 29.9934 21.1292 29.9709 21.1056 29.9259L15.967 20.2444C15.9462 20.2054 15.9152 20.1728 15.8774 20.1501C15.8395 20.1274 15.7962 20.1154 15.752 20.1154C15.7078 20.1154 15.6645 20.1274 15.6266 20.1501C15.5888 20.1728 15.5578 20.2054 15.537 20.2444Z" fill="#F0F0F0"/>
<path d="M46.6499 23.7582L46.5185 23.7639C46.4971 23.7649 46.4766 23.7727 46.4601 23.7863C46.4436 23.8 46.4319 23.8186 46.427 23.8394C45.6529 27.0845 43.2814 29.3874 39.8968 29.6709C36.5294 29.9534 33.5736 28.3548 32.0208 25.3979C31.0409 23.5307 30.6395 21.1992 30.7619 19.0335C31.01 14.669 33.8492 10.8557 38.2057 9.91006C42.1219 9.06048 46.1754 10.364 48.508 13.7291C48.5194 13.7456 48.5341 13.7595 48.5512 13.7699C48.5682 13.7803 48.5873 13.787 48.6071 13.7896C48.627 13.7922 48.6471 13.7906 48.6663 13.7849C48.6855 13.7792 48.7032 13.7696 48.7184 13.7566L52.8977 10.2028C52.9282 10.1769 52.9636 10.1639 53.004 10.1639L53.6821 10.165C53.721 10.165 53.7404 10.1845 53.7404 10.2234V29.1495C53.7404 29.1647 53.7345 29.1792 53.724 29.19C53.7135 29.2007 53.6992 29.2067 53.6844 29.2067H46.802C46.7494 29.2067 46.7231 29.1804 46.7231 29.1278V23.8291C46.7231 23.8195 46.7212 23.81 46.7175 23.8012C46.7138 23.7923 46.7083 23.7844 46.7015 23.7777C46.6946 23.7711 46.6865 23.766 46.6777 23.7626C46.6688 23.7592 46.6594 23.7578 46.6499 23.7582ZM42.3318 24.2993C43.5325 24.3685 44.7126 23.9408 45.6123 23.1104C46.5121 22.2799 47.0578 21.1146 47.1295 19.8709C47.165 19.2551 47.0831 18.6385 46.8884 18.0564C46.6937 17.4744 46.39 16.9382 45.9947 16.4785C45.5994 16.0188 45.1202 15.6446 44.5845 15.3772C44.0488 15.1099 43.4671 14.9547 42.8726 14.9204C41.6718 14.8512 40.4918 15.2788 39.5921 16.1093C38.6923 16.9398 38.1465 18.1051 38.0748 19.3488C38.0393 19.9646 38.1213 20.5812 38.316 21.1632C38.5107 21.7453 38.8144 22.2815 39.2097 22.7412C39.605 23.2009 40.0841 23.5751 40.6198 23.8424C41.1555 24.1098 41.7372 24.265 42.3318 24.2993Z" fill="#F0F0F0"/>
<path d="M61.6358 13.433C61.6398 13.4364 61.6445 13.439 61.6495 13.4405C61.6546 13.442 61.6599 13.4423 61.6651 13.4416C61.6703 13.4408 61.6753 13.4389 61.6797 13.4361C61.6841 13.4332 61.6879 13.4294 61.6907 13.425C63.0354 11.3112 64.9796 10.0842 67.5234 9.74427C69.0647 9.53845 70.5886 9.68976 72.0948 10.1982C72.1171 10.2059 72.1364 10.2204 72.15 10.2397C72.1635 10.259 72.1706 10.2821 72.1703 10.3057L72.1006 16.0263C72.1006 16.0327 72.0988 16.0389 72.0953 16.0443C72.0919 16.0496 72.087 16.0539 72.0812 16.0566C72.0754 16.0592 72.069 16.0601 72.0627 16.0592C72.0564 16.0583 72.0505 16.0556 72.0457 16.0515C71.7804 15.8228 71.4785 15.6474 71.1401 15.5255C69.0407 14.7651 66.683 15.1104 65.1965 16.8416C64.2246 17.9736 63.8404 19.4658 63.8392 20.9751C63.8362 23.7392 63.8362 26.4613 63.8392 29.1415C63.8392 29.185 63.8175 29.2067 63.774 29.2067H56.8894C56.883 29.2067 56.8769 29.2041 56.8724 29.1993C56.8679 29.1946 56.8654 29.1882 56.8654 29.1816L56.8643 10.2485C56.8643 10.1913 56.8928 10.1628 56.95 10.1628L57.5983 10.1639C57.6387 10.1639 57.6746 10.1769 57.7058 10.2028L61.6358 13.433Z" fill="#F0F0F0"/>
<path d="M83.9832 19.5904C84.0163 16.2127 85.6103 13.1974 88.4689 11.3896C91.5081 9.46866 95.549 9.22625 98.8936 10.2508C102.39 11.3199 105.025 14.167 105.615 17.8215C106.537 23.5318 103.079 28.5195 97.3305 29.4914C95.392 29.8192 93.5183 29.7689 91.7094 29.3405C87.0236 28.2313 83.9351 24.442 83.9832 19.5904ZM95.0775 24.3735C96.2796 24.321 97.4111 23.7779 98.2228 22.8637C99.0346 21.9496 99.4602 20.7392 99.4061 19.4988C99.3519 18.2584 98.8224 17.0897 97.9341 16.2498C97.0457 15.4098 95.8712 14.9674 94.6691 15.0199C93.4669 15.0724 92.3355 15.6155 91.5237 16.5297C90.7119 17.4438 90.2863 18.6543 90.3404 19.8946C90.3946 21.135 90.9241 22.3037 91.8124 23.1436C92.7008 23.9836 93.8753 24.426 95.0775 24.3735Z" fill="#F0F0F0"/>
<path d="M107.58 19.2519C107.729 14.7536 110.95 11.3119 115.176 10.1604C117.801 9.44616 120.452 9.49647 123.129 10.3114C124.155 10.6231 125.095 11.0965 125.948 11.7315C125.996 11.7666 126.012 11.8131 125.996 11.871L124.576 16.8884C124.56 16.9448 124.53 16.9543 124.485 16.917C122.911 15.6078 121.109 15.1081 119.095 15.291C116.704 15.5083 114.644 17.1708 114.735 19.7127C114.838 22.6399 117.456 24.1206 120.109 24.0738C122.365 24.0349 124.442 23.4281 126.341 22.2534C126.343 22.2515 126.347 22.2504 126.35 22.2502C126.354 22.2501 126.357 22.2509 126.36 22.2526C126.363 22.2542 126.365 22.2567 126.367 22.2597C126.369 22.2626 126.369 22.266 126.369 22.2694V28.0586C126.369 28.0899 126.355 28.1128 126.327 28.1273C125.811 28.4009 125.282 28.6266 124.74 28.8042C122.347 29.5893 119.989 29.8584 117.667 29.6114C112.127 29.0237 107.386 25.2035 107.58 19.2519Z" fill="#F0F0F0"/>
<path d="M169 23.2174V23.8589C168.934 25.2112 168.473 26.3607 167.616 27.3075C166.306 28.7539 164.148 29.4766 162.223 29.6275C159.575 29.8348 156.928 29.5978 154.279 28.9163C152.983 28.5824 151.743 28.117 150.56 27.5201C150.55 27.515 150.541 27.5064 150.537 27.4958C150.532 27.4851 150.531 27.4731 150.535 27.4618L151.892 22.6159C151.904 22.5733 151.929 22.5641 151.965 22.5885C153.723 23.7434 155.666 24.4637 157.795 24.7496C158.77 24.8799 162.006 25.0423 161.912 23.3386C161.873 22.6457 161.269 22.2832 160.684 22.074C160.119 21.8712 159.555 21.7145 158.992 21.604C156.841 21.1844 154.443 20.5326 153.015 18.718C151.702 17.0497 151.567 14.5284 152.76 12.7092C154.47 10.0999 157.918 9.59448 160.783 9.66881C162.995 9.72598 165.013 9.99811 167.039 10.8534C167.067 10.8648 167.081 10.8862 167.081 10.9174L167.08 15.4889C167.08 15.5392 167.058 15.5529 167.013 15.5301C165.795 14.9134 164.328 14.5257 162.609 14.3672C161.601 14.2734 160.733 14.3424 160.007 14.5742C159.22 14.8257 158.635 15.5152 159.152 16.3248C159.31 16.574 159.577 16.7802 159.953 16.9434C160.953 17.3779 162.043 17.5654 163.092 17.7758C164.629 18.0845 166.314 18.686 167.44 19.7276C168.405 20.6203 168.925 21.7835 169 23.2174Z" fill="#F0F0F0"/>
</g>
<defs>
<clipPath id="clip0_12_422">
<rect width="169" height="30.8728" fill="white" transform="translate(0 0.563599)"/>
</clipPath>
</defs>
</svg>
