<svg width="299" height="629" viewBox="0 0 299 629" fill="none" xmlns="http://www.w3.org/2000/svg">
<g style="mix-blend-mode:soft-light" clip-path="url(#clip0_28_2911)">
<path d="M-0.96138 336.104C5.21793 351.131 2.47034 369.724 -10.6055 380.202C-21.5407 388.958 -36.2055 388.096 -46.28 378.358C-58.5283 366.544 -60.0952 347.222 -52.1062 332.67C-51.8782 332.25 -52.0032 332.018 -52.4814 331.974C-87.9793 328.728 -125.022 322.092 -158.236 311.681C-181.861 304.272 -232.873 284.972 -230.368 254.3C-228.206 227.79 -184.73 210.201 -163.323 203.179C-145.785 197.423 -128.093 192.885 -110.247 189.566C-110.043 189.527 -109.85 189.447 -109.68 189.329C-109.511 189.21 -109.369 189.058 -109.265 188.881C-76.9485 135.309 -44.6579 81.5573 -12.3931 27.6249C-7.78806 19.9182 -4.16875 14.7657 -1.53519 12.1673C17.9407 -7.06637 48.749 -2.04264 62.52 20.8346C97.2492 78.5872 130.923 134.595 163.541 188.859C163.761 189.22 164.081 189.44 164.501 189.521C193.974 195.097 224.374 203.444 250.691 217.091C262.575 223.263 275.596 232.505 281.775 244.385C288.341 257.027 283.463 269.912 274.051 279.341C261.163 292.248 242.503 301.07 224.992 307.397C187.916 320.801 146.459 328.198 106.514 331.996C106.25 332.018 106.18 332.151 106.305 332.394C112.138 343.303 112.944 354.498 108.721 365.981C101.836 384.696 80.2083 393.12 64.2524 379.661C51.8166 369.161 49.069 350.788 55.3255 335.993C55.5168 335.544 55.366 335.327 54.8731 335.342C36.8354 336.122 18.3968 336.129 -0.442764 335.364C-1.00185 335.342 -1.17471 335.588 -0.96138 336.104ZM-52.9007 252.787C-76.029 249.177 -99.0469 242.894 -118.71 231.765C-120.079 230.985 -120.277 231.213 -119.306 232.449C-99.8083 257.204 -65.1931 269.581 -34.8924 275.687C1.46252 283.003 38.1522 283.835 75.1765 278.182C91.3016 275.716 106.684 271.877 121.323 266.666C141.218 259.577 160.903 248.569 173.725 231.897C174.299 231.146 174.171 230.996 173.339 231.445C144.274 247.344 111.006 253.527 77.8358 256.486C32.3149 260.534 -11.2639 259.301 -52.9007 252.787Z" fill="#F0F0F0"/>
<path d="M-245 556.485C-245 556.419 -245 556.356 -245 556.297C-235.834 546.11 -226.753 535.938 -217.756 525.78C-210.65 517.756 -201.506 509.976 -190.324 502.439C-162.745 483.838 -132.342 474.77 -99.1131 475.233C-98.12 475.248 -98.0685 475.038 -98.9586 474.604C-131.885 458.362 -160.961 433.906 -179.08 401.909C-180.286 399.767 -181.408 397.57 -182.446 395.317C-182.585 395.001 -182.582 394.688 -182.434 394.379C-171.348 371.001 -167.586 347.046 -171.146 322.512C-171.212 322.063 -171.025 321.883 -170.583 321.971C-147.47 326.579 -123.794 330.281 -99.5545 333.078C-99.1425 333.123 -98.9439 333.354 -98.9586 333.774C-100.011 372.926 -87.5048 406.141 -61.4414 433.42C-41.5351 454.255 -14.0593 467.516 14.0455 470.441C91.5076 478.513 153.532 415.026 153.323 339.449C153.323 337.462 153.293 335.544 153.235 333.697C153.22 333.292 153.415 333.067 153.819 333.023C177.198 330.403 200.83 326.737 224.716 322.026C225.216 321.931 225.429 322.133 225.356 322.634C221.825 347.211 225.93 371.789 236.766 394.511C236.927 394.85 236.924 395.189 236.755 395.527C219.066 430.362 188.589 457.093 153.566 474.505C152.389 475.086 152.455 475.369 153.764 475.355C197.946 474.703 238.597 492.126 269.141 523.329C274.209 528.511 283.934 539.427 298.316 556.077C298.61 556.415 298.562 556.691 298.172 556.905C213.729 603.808 123.618 627.539 27.8387 628.098C20.5191 628.142 13.0671 627.999 5.48279 627.667C-83.6391 623.825 -167.133 600.098 -245 556.485ZM27.5518 531.952C27.5033 531.901 27.4451 531.861 27.3806 531.833C27.3161 531.805 27.2467 531.791 27.1766 531.791C27.1064 531.791 27.037 531.805 26.9725 531.833C26.9081 531.861 26.8499 531.901 26.8014 531.952L-4.23859 564.225C-4.33429 564.322 -4.38794 564.453 -4.38794 564.589C-4.38794 564.726 -4.33429 564.857 -4.23859 564.954L26.8014 597.083C26.8499 597.134 26.9081 597.175 26.9725 597.202C27.037 597.23 27.1064 597.244 27.1766 597.244C27.2467 597.244 27.3161 597.23 27.3806 597.202C27.4451 597.175 27.5033 597.134 27.5518 597.083L58.5145 564.943C58.6102 564.846 58.6638 564.715 58.6638 564.578C58.6638 564.442 58.6102 564.311 58.5145 564.214L27.5518 531.952Z" fill="#F0F0F0"/>
</g>
<defs>
<clipPath id="clip0_28_2911">
<rect width="544" height="628.242" fill="white" transform="translate(-245)"/>
</clipPath>
</defs>
</svg>
